<svg width="24" height="24" viewBox="0 0 24 24" fill="none" xmlns="http://www.w3.org/2000/svg">
<g clip-path="url(#clip0_105_125)">
<path d="M17 23.0268V19.1568C17.0375 18.68 16.9731 18.2006 16.811 17.7506C16.6489 17.3006 16.3929 16.8902 16.06 16.5468C19.2 16.1968 22.5 15.0068 22.5 9.54679C22.4997 8.15062 21.9627 6.80799 21 5.79679C21.4559 4.5753 21.4236 3.22514 20.91 2.02679C20.91 2.02679 19.73 1.67679 17 3.50679C14.708 2.88561 12.292 2.88561 10 3.50679C7.27 1.67679 6.09 2.02679 6.09 2.02679C5.57638 3.22514 5.54414 4.5753 6 5.79679C5.03013 6.81549 4.49252 8.17026 4.5 9.57679C4.5 14.9968 7.8 16.1868 10.94 16.5768C10.611 16.9168 10.3573 17.3222 10.1953 17.7667C10.0334 18.2112 9.96681 18.6849 10 19.1568V23.0268M10 20.0268C5 21.5268 5 17.5268 3 17.0268L10 20.0268Z" stroke="#17151A" stroke-width="2" stroke-linecap="round" stroke-linejoin="round"/>
</g>
<defs>
<clipPath id="clip0_105_125">
<rect width="24" height="24" fill="white"/>
</clipPath>
</defs>
</svg>
