<svg width="473" height="394" viewBox="0 0 473 394" fill="none" xmlns="http://www.w3.org/2000/svg">
<g clip-path="url(#clip0_42_2)">
<path d="M426.475 205.044C426.537 253.797 406.832 300.675 371.503 335.822C369.373 337.955 367.186 340.036 364.941 342.066C361.52 345.177 357.985 348.168 354.335 351.038C320.191 377.941 277.565 393.058 233.335 393.952C231.861 393.984 230.382 394 228.897 394C193.623 394 149.256 375.981 108.993 351.038C105.661 348.975 102.36 346.863 99.0881 344.704C97.5588 343.704 96.0369 342.69 94.5224 341.662C78.9935 331.176 64.2535 319.66 50.411 307.199C41.3479 299.065 32.8491 290.374 24.9686 281.182C-5.96826 244.687 -12.7918 211.804 31.3139 205.044C36.5359 204.246 41.604 203.393 46.5182 202.486C53.6366 201.177 60.449 199.765 66.9556 198.247C75.72 196.21 83.9543 194.001 91.6584 191.62C94.2499 190.823 96.7821 190.009 99.255 189.179C135.814 176.899 160.283 160.886 176.939 143.51C179.764 140.569 182.369 137.593 184.753 134.581C188.4 129.996 191.713 125.177 194.668 120.158C198.747 113.183 202.173 105.877 204.906 98.3256L205.057 97.9108C218.309 61.3524 214.277 27.4425 228.897 16.0931C291.394 -32.4263 369.201 36.6699 405.721 118.152C407.562 122.258 409.293 126.389 410.915 130.544C411.643 132.4 412.346 134.26 413.023 136.123C414.802 140.979 416.417 145.847 417.866 150.727C418.423 152.589 418.953 154.449 419.457 156.306C419.996 158.311 420.514 160.311 420.992 162.311C424.545 176.952 426.475 191.392 426.475 205.044Z" fill="#F2F2F2"/>
<path d="M233.335 393.952C231.861 393.984 230.382 394 228.897 394C193.623 394 149.256 375.981 108.993 351.038C105.661 348.975 102.36 346.863 99.0881 344.704L101.958 328.004L188.829 316.974L232.429 348.858L233.335 393.952Z" fill="#2F2E41"/>
<path d="M237.517 95.7569H225.138C224.755 95.7571 224.387 95.9028 224.116 96.1621C223.845 96.4213 223.692 96.7729 223.692 97.1396V108.984C223.692 109.165 223.73 109.344 223.803 109.512C223.875 109.679 223.982 109.831 224.116 109.959C224.251 110.087 224.41 110.188 224.585 110.257C224.761 110.326 224.948 110.362 225.138 110.361H237.517C237.9 110.361 238.267 110.216 238.538 109.958C238.809 109.7 238.962 109.349 238.963 108.984V97.1396C238.962 96.7732 238.809 96.4221 238.538 96.163C238.267 95.904 237.9 95.758 237.517 95.7569Z" fill="white"/>
<path d="M237.517 115.94H225.138C224.754 115.94 224.387 116.086 224.116 116.345C223.845 116.605 223.692 116.956 223.692 117.323V129.167C223.692 129.348 223.73 129.528 223.803 129.695C223.875 129.862 223.982 130.014 224.116 130.142C224.251 130.27 224.41 130.372 224.585 130.441C224.761 130.51 224.948 130.545 225.138 130.544H237.517C237.9 130.544 238.267 130.4 238.538 130.141C238.809 129.883 238.962 129.533 238.963 129.167V117.323C238.962 116.956 238.809 116.605 238.538 116.346C238.267 116.087 237.9 115.941 237.517 115.94Z" fill="#E6E6E6"/>
<path d="M237.517 136.123H225.138C224.754 136.123 224.387 136.269 224.116 136.528C223.845 136.788 223.692 137.139 223.692 137.506V149.345C223.692 149.526 223.729 149.706 223.801 149.874C223.874 150.042 223.98 150.195 224.115 150.323C224.249 150.452 224.409 150.554 224.584 150.623C224.76 150.692 224.948 150.728 225.138 150.727H237.517C237.901 150.727 238.268 150.582 238.539 150.322C238.81 150.063 238.963 149.711 238.963 149.345V137.506C238.962 137.14 238.809 136.789 238.538 136.529C238.267 136.27 237.9 136.124 237.517 136.123Z" fill="#E6E6E6"/>
<path d="M238.941 157.445C238.879 157.126 238.703 156.838 238.443 156.63C238.183 156.423 237.856 156.308 237.517 156.306H225.138C224.754 156.307 224.387 156.452 224.116 156.712C223.845 156.971 223.692 157.323 223.692 157.689V169.528C223.692 169.71 223.729 169.89 223.801 170.057C223.874 170.225 223.98 170.378 224.115 170.506C224.249 170.635 224.409 170.737 224.584 170.806C224.76 170.875 224.948 170.911 225.138 170.911H237.517C237.901 170.91 238.268 170.765 238.539 170.505C238.811 170.246 238.963 169.895 238.963 169.528V157.689C238.964 157.607 238.957 157.525 238.941 157.445Z" fill="#E6E6E6"/>
<path d="M238.079 176.596C237.901 176.526 237.71 176.489 237.517 176.49H225.138C224.948 176.489 224.76 176.525 224.584 176.594C224.409 176.664 224.249 176.765 224.115 176.894C223.98 177.022 223.874 177.175 223.801 177.343C223.729 177.511 223.692 177.691 223.692 177.872V189.711C223.691 189.893 223.728 190.073 223.8 190.241C223.873 190.409 223.979 190.562 224.114 190.691C224.248 190.819 224.408 190.921 224.584 190.99C224.759 191.059 224.948 191.095 225.138 191.094H237.517C237.901 191.094 238.268 190.948 238.539 190.689C238.811 190.429 238.963 190.078 238.963 189.711V177.872C238.962 177.6 238.878 177.334 238.721 177.107C238.564 176.881 238.341 176.703 238.079 176.596Z" fill="#E6E6E6"/>
<path d="M263.521 95.7569H251.142C250.759 95.7571 250.391 95.9028 250.12 96.1621C249.849 96.4213 249.696 96.7729 249.696 97.1396V108.984C249.696 109.165 249.734 109.344 249.807 109.512C249.88 109.679 249.986 109.831 250.12 109.959C250.255 110.087 250.414 110.188 250.589 110.257C250.765 110.326 250.952 110.362 251.142 110.361H263.521C263.904 110.361 264.271 110.216 264.542 109.958C264.813 109.7 264.966 109.349 264.967 108.984V97.1396C264.966 96.7732 264.813 96.4221 264.542 96.163C264.272 95.904 263.904 95.758 263.521 95.7569Z" fill="#E6E6E6"/>
<path d="M263.521 115.94H251.142C250.759 115.94 250.391 116.086 250.12 116.345C249.849 116.605 249.696 116.956 249.696 117.323V129.167C249.696 129.348 249.734 129.528 249.807 129.695C249.88 129.862 249.986 130.014 250.12 130.142C250.255 130.27 250.414 130.372 250.589 130.441C250.765 130.51 250.952 130.545 251.142 130.544H263.521C263.904 130.544 264.271 130.4 264.542 130.141C264.813 129.883 264.966 129.533 264.967 129.167V117.323C264.966 116.956 264.813 116.605 264.542 116.346C264.272 116.087 263.904 115.941 263.521 115.94Z" fill="#6255A4"/>
<path d="M263.521 136.123H251.142C250.759 136.123 250.391 136.269 250.12 136.528C249.849 136.788 249.696 137.139 249.696 137.506V149.345C249.696 149.526 249.733 149.706 249.806 149.874C249.878 150.042 249.985 150.195 250.119 150.323C250.253 150.452 250.413 150.554 250.588 150.623C250.764 150.692 250.952 150.728 251.142 150.727H263.521C263.905 150.727 264.272 150.582 264.543 150.322C264.815 150.063 264.967 149.711 264.967 149.345V137.506C264.966 137.14 264.813 136.789 264.542 136.529C264.272 136.27 263.904 136.124 263.521 136.123Z" fill="#6255A4"/>
<path d="M263.521 156.306H251.142C250.839 156.307 250.544 156.398 250.298 156.568C250.052 156.738 249.869 156.978 249.774 157.253C249.723 157.393 249.696 157.541 249.696 157.689V169.528C249.696 169.71 249.733 169.89 249.805 170.057C249.878 170.225 249.984 170.378 250.119 170.506C250.253 170.635 250.413 170.737 250.588 170.806C250.764 170.875 250.952 170.911 251.142 170.911H263.521C263.905 170.91 264.272 170.765 264.543 170.505C264.815 170.246 264.967 169.895 264.967 169.528V157.689C264.966 157.323 264.813 156.972 264.542 156.713C264.271 156.454 263.904 156.307 263.521 156.306Z" fill="#6255A4"/>
<path d="M263.521 176.49H251.142C250.952 176.489 250.764 176.525 250.588 176.594C250.413 176.664 250.253 176.765 250.119 176.894C249.985 177.022 249.878 177.175 249.806 177.343C249.733 177.511 249.696 177.691 249.696 177.872V189.711C249.696 189.893 249.733 190.073 249.806 190.241C249.878 190.409 249.985 190.561 250.119 190.69C250.253 190.818 250.413 190.92 250.588 190.989C250.764 191.059 250.952 191.094 251.142 191.094H263.521C263.905 191.094 264.272 190.948 264.543 190.689C264.815 190.429 264.967 190.078 264.967 189.711V177.872C264.967 177.506 264.815 177.154 264.543 176.895C264.272 176.636 263.905 176.49 263.521 176.49Z" fill="#E6E6E6"/>
<path d="M289.525 95.7569H277.146C276.763 95.7571 276.395 95.9028 276.124 96.1621C275.853 96.4213 275.7 96.7729 275.7 97.1396V108.984C275.701 109.165 275.738 109.344 275.811 109.512C275.884 109.679 275.99 109.831 276.125 109.959C276.259 110.087 276.418 110.188 276.593 110.257C276.769 110.326 276.957 110.362 277.146 110.361H289.525C289.908 110.361 290.275 110.216 290.546 109.958C290.817 109.7 290.97 109.349 290.971 108.984V97.1396C290.97 96.7732 290.817 96.4221 290.546 96.163C290.276 95.904 289.908 95.758 289.525 95.7569Z" fill="#6255A4"/>
<path d="M289.525 115.94H277.146C276.763 115.94 276.395 116.086 276.124 116.345C275.853 116.605 275.7 116.956 275.7 117.323V129.167C275.701 129.348 275.738 129.528 275.811 129.695C275.884 129.862 275.99 130.014 276.125 130.142C276.259 130.27 276.418 130.372 276.593 130.441C276.769 130.51 276.957 130.545 277.146 130.544H289.525C289.908 130.544 290.275 130.4 290.546 130.141C290.817 129.883 290.97 129.533 290.971 129.167V117.323C290.97 116.956 290.817 116.605 290.547 116.346C290.276 116.087 289.908 115.941 289.525 115.94Z" fill="#6255A4"/>
<path d="M289.525 136.123H277.146C276.763 136.123 276.395 136.269 276.124 136.528C275.853 136.788 275.7 137.139 275.7 137.506V149.345C275.7 149.526 275.737 149.706 275.81 149.874C275.882 150.042 275.989 150.195 276.123 150.323C276.257 150.452 276.417 150.554 276.592 150.623C276.768 150.692 276.956 150.728 277.146 150.727H289.525C289.909 150.727 290.276 150.582 290.548 150.322C290.819 150.063 290.971 149.711 290.971 149.345V137.506C290.97 137.14 290.817 136.789 290.547 136.529C290.276 136.27 289.908 136.124 289.525 136.123Z" fill="#E6E6E6"/>
<path d="M289.525 156.306H277.146C276.763 156.307 276.395 156.452 276.124 156.712C275.853 156.971 275.7 157.323 275.7 157.689V169.528C275.7 169.71 275.737 169.89 275.81 170.057C275.882 170.225 275.989 170.378 276.123 170.506C276.257 170.635 276.417 170.737 276.592 170.806C276.768 170.875 276.956 170.911 277.146 170.911H289.525C289.909 170.91 290.276 170.765 290.548 170.505C290.819 170.246 290.971 169.895 290.971 169.528V157.689C290.97 157.323 290.817 156.972 290.547 156.713C290.276 156.454 289.908 156.307 289.525 156.306Z" fill="#6255A4"/>
<path d="M289.525 176.49H277.146C276.956 176.489 276.768 176.525 276.592 176.594C276.417 176.664 276.257 176.765 276.123 176.894C275.989 177.022 275.882 177.175 275.81 177.343C275.737 177.511 275.7 177.691 275.7 177.872V189.711C275.7 189.893 275.737 190.073 275.81 190.241C275.882 190.409 275.989 190.561 276.123 190.69C276.257 190.818 276.417 190.92 276.592 190.989C276.768 191.059 276.956 191.094 277.146 191.094H289.525C289.909 191.094 290.276 190.948 290.548 190.689C290.819 190.429 290.971 190.078 290.971 189.711V177.872C290.971 177.506 290.819 177.154 290.548 176.895C290.276 176.636 289.909 176.49 289.525 176.49Z" fill="#6255A4"/>
<path d="M315.529 95.7569H303.15C302.767 95.7571 302.399 95.9028 302.128 96.1621C301.857 96.4213 301.705 96.7729 301.704 97.1396V108.984C301.705 109.165 301.742 109.344 301.815 109.512C301.888 109.679 301.994 109.831 302.129 109.959C302.263 110.087 302.422 110.188 302.598 110.257C302.773 110.326 302.961 110.362 303.15 110.361H315.529C315.912 110.361 316.279 110.216 316.55 109.958C316.821 109.7 316.974 109.349 316.975 108.984V97.1396C316.974 96.7732 316.822 96.4221 316.551 96.163C316.28 95.904 315.913 95.758 315.529 95.7569Z" fill="#6255A4"/>
<path d="M315.529 115.94H303.15C302.767 115.94 302.399 116.086 302.128 116.345C301.857 116.605 301.705 116.956 301.704 117.323V129.167C301.705 129.348 301.742 129.528 301.815 129.695C301.888 129.862 301.994 130.014 302.129 130.142C302.263 130.27 302.422 130.372 302.598 130.441C302.773 130.51 302.961 130.545 303.15 130.544H315.529C315.912 130.544 316.279 130.4 316.55 130.141C316.821 129.883 316.974 129.533 316.975 129.167V117.323C316.974 116.956 316.822 116.605 316.551 116.346C316.28 116.087 315.913 115.941 315.529 115.94Z" fill="white"/>
<path d="M315.529 136.123H303.15C302.767 136.123 302.399 136.269 302.128 136.528C301.857 136.788 301.705 137.139 301.704 137.506V149.345C301.704 149.526 301.741 149.706 301.814 149.874C301.886 150.042 301.993 150.195 302.127 150.323C302.261 150.452 302.421 150.554 302.596 150.623C302.772 150.692 302.96 150.728 303.15 150.727H315.529C315.913 150.727 316.28 150.582 316.552 150.322C316.823 150.063 316.975 149.711 316.975 149.345V137.506C316.974 137.14 316.822 136.789 316.551 136.529C316.28 136.27 315.913 136.124 315.529 136.123Z" fill="white"/>
<path d="M315.529 156.306H303.15C302.767 156.307 302.399 156.452 302.128 156.712C301.857 156.971 301.705 157.323 301.704 157.689V169.528C301.704 169.71 301.741 169.89 301.814 170.057C301.886 170.225 301.993 170.378 302.127 170.506C302.261 170.635 302.421 170.737 302.596 170.806C302.772 170.875 302.96 170.911 303.15 170.911H315.529C315.913 170.91 316.281 170.765 316.552 170.505C316.823 170.246 316.975 169.895 316.975 169.528V157.689C316.974 157.323 316.822 156.972 316.551 156.713C316.28 156.454 315.913 156.307 315.529 156.306Z" fill="#E6E6E6"/>
<path d="M315.529 176.49H303.15C302.96 176.489 302.772 176.525 302.596 176.594C302.421 176.664 302.261 176.765 302.127 176.894C301.993 177.022 301.886 177.175 301.814 177.343C301.741 177.511 301.704 177.691 301.704 177.872V189.711C301.704 189.893 301.741 190.073 301.814 190.241C301.886 190.409 301.993 190.561 302.127 190.69C302.261 190.818 302.421 190.92 302.596 190.989C302.772 191.059 302.96 191.094 303.15 191.094H315.529C315.913 191.094 316.281 190.948 316.552 190.689C316.823 190.429 316.975 190.078 316.975 189.711V177.872C316.975 177.506 316.823 177.154 316.552 176.895C316.281 176.636 315.913 176.49 315.529 176.49Z" fill="#6255A4"/>
<path d="M341.534 95.7569H329.149C328.766 95.7582 328.4 95.9044 328.13 96.1636C327.86 96.4228 327.708 96.7738 327.708 97.1396V108.984C327.709 109.349 327.86 109.699 328.13 109.958C328.401 110.216 328.767 110.361 329.149 110.361H341.534C341.916 110.361 342.283 110.216 342.554 109.958C342.825 109.7 342.978 109.349 342.98 108.984V97.1396C342.978 96.7732 342.826 96.4221 342.555 96.163C342.284 95.904 341.917 95.758 341.534 95.7569Z" fill="white"/>
<path d="M341.534 115.94H329.149C328.766 115.941 328.4 116.088 328.13 116.347C327.86 116.606 327.708 116.957 327.708 117.323V129.167C327.709 129.532 327.86 129.882 328.13 130.141C328.401 130.399 328.767 130.544 329.149 130.544H341.534C341.916 130.544 342.283 130.4 342.554 130.141C342.825 129.883 342.978 129.533 342.98 129.167V117.323C342.978 116.956 342.826 116.605 342.555 116.346C342.284 116.087 341.917 115.941 341.534 115.94Z" fill="white"/>
<path d="M341.534 136.123H329.149C328.766 136.125 328.4 136.271 328.13 136.53C327.86 136.789 327.708 137.14 327.708 137.506V149.345C327.708 149.526 327.745 149.706 327.817 149.873C327.889 150.041 327.995 150.193 328.129 150.322C328.263 150.45 328.422 150.552 328.597 150.622C328.772 150.691 328.959 150.727 329.149 150.727H341.534C341.917 150.727 342.285 150.582 342.556 150.322C342.827 150.063 342.979 149.711 342.98 149.345V137.506C342.978 137.14 342.826 136.789 342.555 136.529C342.284 136.27 341.917 136.124 341.534 136.123Z" fill="white"/>
<path d="M341.534 156.306H329.149C328.766 156.308 328.4 156.454 328.13 156.713C327.86 156.972 327.708 157.323 327.708 157.689V169.528C327.708 169.709 327.745 169.889 327.817 170.056C327.889 170.224 327.995 170.376 328.129 170.505C328.263 170.633 328.422 170.735 328.597 170.805C328.772 170.875 328.959 170.91 329.149 170.911H341.534C341.917 170.91 342.285 170.765 342.556 170.505C342.827 170.246 342.979 169.895 342.98 169.528V157.689C342.978 157.323 342.826 156.972 342.555 156.713C342.284 156.454 341.917 156.307 341.534 156.306Z" fill="#6255A4"/>
<path d="M341.534 176.49H329.149C328.959 176.49 328.772 176.526 328.597 176.595C328.422 176.665 328.263 176.767 328.129 176.895C327.995 177.024 327.889 177.176 327.817 177.344C327.745 177.512 327.708 177.691 327.708 177.872V189.711C327.708 189.892 327.745 190.072 327.817 190.24C327.889 190.407 327.995 190.56 328.129 190.688C328.263 190.817 328.422 190.919 328.597 190.988C328.772 191.058 328.959 191.094 329.149 191.094H341.534C341.917 191.094 342.285 190.948 342.556 190.689C342.827 190.429 342.979 190.078 342.98 189.711V177.872C342.979 177.506 342.827 177.154 342.556 176.895C342.285 176.636 341.917 176.49 341.534 176.49Z" fill="#E6E6E6"/>
<path d="M367.538 95.7569H355.153C354.77 95.7582 354.404 95.9044 354.134 96.1636C353.864 96.4228 353.712 96.7738 353.713 97.1396V108.984C353.713 109.349 353.864 109.699 354.134 109.958C354.405 110.216 354.771 110.361 355.153 110.361H367.538C367.92 110.361 368.287 110.216 368.558 109.958C368.829 109.7 368.982 109.349 368.984 108.984V97.1396C368.982 96.7732 368.83 96.4221 368.559 96.1631C368.288 95.904 367.921 95.758 367.538 95.7569Z" fill="white"/>
<path d="M367.538 115.94H355.153C354.77 115.941 354.404 116.088 354.134 116.347C353.864 116.606 353.712 116.957 353.713 117.323V129.167C353.713 129.532 353.864 129.882 354.134 130.141C354.405 130.399 354.771 130.544 355.153 130.544H367.538C367.92 130.544 368.287 130.4 368.558 130.141C368.829 129.883 368.982 129.533 368.984 129.167V117.323C368.983 116.956 368.83 116.605 368.559 116.346C368.288 116.087 367.921 115.941 367.538 115.94Z" fill="white"/>
<path d="M367.538 136.123H355.153C354.77 136.125 354.404 136.271 354.134 136.53C353.864 136.789 353.712 137.14 353.713 137.506V149.345C353.712 149.526 353.749 149.706 353.821 149.873C353.893 150.041 353.999 150.193 354.133 150.322C354.267 150.45 354.426 150.552 354.601 150.622C354.776 150.691 354.963 150.727 355.153 150.727H367.538C367.921 150.727 368.289 150.582 368.56 150.322C368.831 150.063 368.983 149.711 368.984 149.345V137.506C368.983 137.14 368.83 136.789 368.559 136.529C368.288 136.27 367.921 136.124 367.538 136.123Z" fill="#6255A4"/>
<path d="M367.538 156.306H355.153C354.77 156.308 354.404 156.454 354.134 156.713C353.864 156.972 353.712 157.323 353.713 157.689V169.528C353.712 169.709 353.749 169.889 353.821 170.056C353.893 170.224 353.999 170.376 354.133 170.505C354.267 170.633 354.426 170.735 354.601 170.805C354.776 170.875 354.963 170.91 355.153 170.911H367.538C367.921 170.91 368.289 170.765 368.56 170.505C368.831 170.246 368.983 169.895 368.984 169.528V157.689C368.982 157.323 368.83 156.972 368.559 156.713C368.288 156.454 367.921 156.307 367.538 156.306Z" fill="#E6E6E6"/>
<path d="M367.538 176.49H355.153C354.963 176.49 354.776 176.526 354.601 176.595C354.426 176.665 354.267 176.767 354.133 176.895C353.999 177.024 353.893 177.176 353.821 177.344C353.749 177.512 353.712 177.691 353.713 177.872V189.711C353.712 189.892 353.749 190.072 353.821 190.24C353.893 190.407 353.999 190.56 354.133 190.688C354.267 190.817 354.426 190.919 354.601 190.988C354.776 191.058 354.963 191.094 355.153 191.094H367.538C367.921 191.094 368.289 190.948 368.56 190.689C368.831 190.429 368.983 190.078 368.984 189.711V177.872C368.983 177.506 368.831 177.154 368.56 176.895C368.289 176.636 367.921 176.49 367.538 176.49Z" fill="white"/>
<path d="M393.542 95.7569H381.157C380.774 95.7582 380.408 95.9044 380.138 96.1636C379.868 96.4228 379.716 96.7738 379.717 97.1396V108.984C379.717 109.349 379.868 109.699 380.139 109.958C380.409 110.216 380.775 110.361 381.157 110.361H393.542C393.924 110.361 394.291 110.216 394.562 109.958C394.833 109.7 394.986 109.349 394.988 108.984V97.1396C394.987 96.7732 394.834 96.4221 394.563 96.1631C394.292 95.904 393.925 95.758 393.542 95.7569Z" fill="#6255A4"/>
<path d="M393.542 115.94H381.157C380.774 115.941 380.408 116.088 380.138 116.347C379.868 116.606 379.716 116.957 379.717 117.323V129.167C379.717 129.532 379.868 129.882 380.139 130.141C380.409 130.399 380.775 130.544 381.157 130.544H393.542C393.924 130.544 394.291 130.4 394.562 130.141C394.833 129.883 394.986 129.533 394.988 129.167V117.323C394.987 116.956 394.834 116.605 394.563 116.346C394.292 116.087 393.925 115.941 393.542 115.94Z" fill="#6255A4"/>
<path d="M393.542 136.123H381.157C380.774 136.125 380.408 136.271 380.138 136.53C379.868 136.789 379.716 137.14 379.717 137.506V149.345C379.716 149.526 379.753 149.706 379.825 149.873C379.897 150.041 380.003 150.193 380.137 150.322C380.271 150.45 380.43 150.552 380.605 150.622C380.78 150.691 380.967 150.727 381.157 150.727H393.542C393.925 150.727 394.293 150.582 394.564 150.322C394.835 150.063 394.987 149.711 394.988 149.345V137.506C394.987 137.14 394.834 136.789 394.563 136.529C394.292 136.27 393.925 136.124 393.542 136.123Z" fill="#E6E6E6"/>
<path d="M393.542 156.306H381.157C380.774 156.308 380.408 156.454 380.138 156.713C379.868 156.972 379.716 157.323 379.717 157.689V169.528C379.716 169.709 379.753 169.889 379.825 170.056C379.897 170.224 380.003 170.376 380.137 170.505C380.271 170.633 380.43 170.735 380.605 170.805C380.78 170.875 380.967 170.91 381.157 170.911H393.542C393.925 170.91 394.293 170.765 394.564 170.505C394.835 170.246 394.987 169.895 394.988 169.528V157.689C394.986 157.323 394.834 156.972 394.563 156.713C394.292 156.454 393.925 156.307 393.542 156.306Z" fill="white"/>
<path d="M393.542 176.49H381.157C380.967 176.49 380.78 176.526 380.605 176.595C380.43 176.665 380.271 176.767 380.137 176.895C380.003 177.024 379.897 177.176 379.825 177.344C379.753 177.512 379.716 177.691 379.717 177.872V189.711C379.716 189.892 379.753 190.072 379.825 190.24C379.897 190.407 380.003 190.56 380.137 190.688C380.271 190.817 380.43 190.919 380.605 190.988C380.78 191.058 380.967 191.094 381.157 191.094H393.542C393.925 191.094 394.293 190.948 394.564 190.689C394.835 190.429 394.987 190.078 394.988 189.711V177.872C394.987 177.506 394.835 177.154 394.564 176.895C394.293 176.636 393.925 176.49 393.542 176.49Z" fill="#6255A4"/>
<path d="M419.546 95.7569H407.161C406.779 95.7582 406.412 95.9044 406.142 96.1636C405.872 96.4228 405.721 96.7738 405.721 97.1396V108.984C405.721 109.349 405.873 109.699 406.143 109.958C406.413 110.216 406.779 110.361 407.161 110.361H419.546C419.928 110.361 420.295 110.216 420.566 109.958C420.838 109.7 420.99 109.349 420.992 108.984V97.1396C420.991 96.7732 420.838 96.4221 420.567 96.1631C420.296 95.904 419.929 95.758 419.546 95.7569Z" fill="#6255A4"/>
<path d="M419.546 115.94H407.161C406.779 115.941 406.412 116.088 406.142 116.347C405.872 116.606 405.721 116.957 405.721 117.323V129.167C405.721 129.532 405.873 129.882 406.143 130.141C406.413 130.399 406.779 130.544 407.161 130.544H419.546C419.928 130.544 420.295 130.4 420.566 130.141C420.838 129.883 420.99 129.533 420.992 129.167V117.323C420.991 116.956 420.838 116.605 420.567 116.346C420.296 116.087 419.929 115.941 419.546 115.94Z" fill="#6255A4"/>
<path d="M419.546 136.123H407.161C406.779 136.125 406.412 136.271 406.142 136.53C405.872 136.789 405.721 137.14 405.721 137.506V149.345C405.72 149.526 405.757 149.706 405.829 149.873C405.901 150.041 406.007 150.193 406.141 150.322C406.275 150.45 406.434 150.552 406.609 150.622C406.784 150.691 406.972 150.727 407.161 150.727H419.546C419.929 150.727 420.297 150.582 420.568 150.322C420.839 150.063 420.992 149.711 420.992 149.345V137.506C420.991 137.14 420.838 136.789 420.567 136.529C420.296 136.27 419.929 136.124 419.546 136.123Z" fill="#E6E6E6"/>
<path d="M419.546 156.306H407.161C406.779 156.308 406.412 156.454 406.142 156.713C405.872 156.972 405.721 157.323 405.721 157.689V169.528C405.72 169.709 405.757 169.889 405.829 170.056C405.901 170.224 406.007 170.376 406.141 170.505C406.275 170.633 406.434 170.735 406.609 170.805C406.784 170.875 406.972 170.91 407.161 170.911H419.546C419.929 170.91 420.297 170.765 420.568 170.505C420.839 170.246 420.992 169.895 420.992 169.528V157.689C420.991 157.323 420.838 156.972 420.567 156.713C420.296 156.454 419.929 156.307 419.546 156.306Z" fill="#6255A4"/>
<path d="M419.546 176.49H407.161C406.972 176.49 406.784 176.526 406.609 176.595C406.434 176.665 406.275 176.767 406.141 176.895C406.007 177.024 405.901 177.176 405.829 177.344C405.757 177.512 405.72 177.691 405.721 177.872V189.711C405.72 189.892 405.757 190.072 405.829 190.24C405.901 190.407 406.007 190.56 406.141 190.688C406.275 190.817 406.434 190.919 406.609 190.988C406.784 191.058 406.972 191.094 407.161 191.094H419.546C419.929 191.094 420.297 190.948 420.568 190.689C420.839 190.429 420.992 190.078 420.992 189.711V177.872C420.992 177.506 420.839 177.154 420.568 176.895C420.297 176.636 419.929 176.49 419.546 176.49Z" fill="#6255A4"/>
<path d="M445.55 95.7569H433.165C432.783 95.7582 432.416 95.9044 432.146 96.1636C431.876 96.4228 431.725 96.7738 431.725 97.1396V108.984C431.725 109.349 431.877 109.699 432.147 109.958C432.417 110.216 432.783 110.361 433.165 110.361H445.55C445.932 110.361 446.299 110.216 446.571 109.958C446.842 109.7 446.994 109.349 446.996 108.984V97.1396C446.995 96.7732 446.842 96.4221 446.571 96.1631C446.3 95.904 445.933 95.758 445.55 95.7569Z" fill="#E6E6E6"/>
<path d="M445.55 115.94H433.165C432.783 115.941 432.416 116.088 432.146 116.347C431.876 116.606 431.725 116.957 431.725 117.323V129.167C431.725 129.532 431.877 129.882 432.147 130.141C432.417 130.399 432.783 130.544 433.165 130.544H445.55C445.932 130.544 446.299 130.4 446.571 130.141C446.842 129.883 446.994 129.533 446.996 129.167V117.323C446.995 116.956 446.842 116.605 446.571 116.346C446.3 116.087 445.933 115.941 445.55 115.94Z" fill="#6255A4"/>
<path d="M445.55 136.123H433.165C432.783 136.125 432.416 136.271 432.146 136.53C431.876 136.789 431.725 137.14 431.725 137.506V149.345C431.724 149.526 431.761 149.706 431.833 149.873C431.905 150.041 432.011 150.193 432.145 150.322C432.279 150.45 432.438 150.552 432.613 150.622C432.788 150.691 432.976 150.727 433.165 150.727H445.55C445.933 150.727 446.301 150.582 446.572 150.322C446.843 150.063 446.996 149.711 446.996 149.345V137.506C446.995 137.14 446.842 136.789 446.571 136.529C446.3 136.27 445.933 136.124 445.55 136.123Z" fill="#6255A4"/>
<path d="M445.55 156.306H433.165C432.783 156.308 432.416 156.454 432.146 156.713C431.876 156.972 431.725 157.323 431.725 157.689V169.528C431.724 169.709 431.761 169.889 431.833 170.056C431.905 170.224 432.011 170.376 432.145 170.505C432.279 170.633 432.438 170.735 432.613 170.805C432.788 170.875 432.976 170.91 433.165 170.911H445.55C445.933 170.91 446.301 170.765 446.572 170.505C446.843 170.246 446.996 169.895 446.996 169.528V157.689C446.995 157.323 446.842 156.972 446.571 156.713C446.3 156.454 445.933 156.307 445.55 156.306Z" fill="#6255A4"/>
<path d="M445.55 176.49H433.165C432.976 176.49 432.788 176.526 432.613 176.595C432.438 176.665 432.279 176.767 432.145 176.895C432.011 177.024 431.905 177.176 431.833 177.344C431.761 177.512 431.724 177.691 431.725 177.872V189.711C431.724 189.892 431.761 190.072 431.833 190.24C431.905 190.407 432.011 190.56 432.145 190.688C432.279 190.817 432.438 190.919 432.613 190.988C432.788 191.058 432.976 191.094 433.165 191.094H445.55C445.933 191.094 446.301 190.948 446.572 190.689C446.843 190.429 446.996 190.078 446.996 189.711V177.872C446.996 177.506 446.843 177.154 446.572 176.895C446.301 176.636 445.933 176.49 445.55 176.49Z" fill="#E6E6E6"/>
<path d="M471.554 95.7569H459.169C458.787 95.7582 458.42 95.9044 458.15 96.1636C457.88 96.4228 457.729 96.7738 457.729 97.1396V108.984C457.729 109.349 457.881 109.699 458.151 109.958C458.421 110.216 458.787 110.361 459.169 110.361H471.554C471.937 110.361 472.304 110.216 472.575 109.958C472.846 109.7 472.999 109.349 473 108.984V97.1396C472.999 96.7732 472.846 96.4221 472.575 96.1631C472.304 95.904 471.937 95.758 471.554 95.7569Z" fill="#E6E6E6"/>
<path d="M471.554 115.94H459.169C458.787 115.941 458.42 116.088 458.15 116.347C457.88 116.606 457.729 116.957 457.729 117.323V129.167C457.729 129.532 457.881 129.882 458.151 130.141C458.421 130.399 458.787 130.544 459.169 130.544H471.554C471.937 130.544 472.304 130.4 472.575 130.141C472.846 129.883 472.999 129.533 473 129.167V117.323C472.999 116.956 472.846 116.605 472.575 116.346C472.304 116.087 471.937 115.941 471.554 115.94Z" fill="#E6E6E6"/>
<path d="M471.554 136.123H459.169C458.787 136.125 458.42 136.271 458.15 136.53C457.88 136.789 457.729 137.14 457.729 137.506V149.345C457.728 149.526 457.765 149.706 457.837 149.873C457.91 150.041 458.015 150.193 458.149 150.322C458.283 150.45 458.442 150.552 458.617 150.622C458.792 150.691 458.98 150.727 459.169 150.727H471.554C471.937 150.727 472.305 150.582 472.576 150.322C472.847 150.063 473 149.711 473 149.345V137.506C472.999 137.14 472.846 136.789 472.575 136.529C472.304 136.27 471.937 136.124 471.554 136.123Z" fill="#6255A4"/>
<path d="M471.554 156.306H459.169C458.787 156.308 458.42 156.454 458.15 156.713C457.88 156.972 457.729 157.323 457.729 157.689V169.528C457.728 169.709 457.765 169.889 457.837 170.056C457.91 170.224 458.015 170.376 458.149 170.505C458.283 170.633 458.442 170.735 458.617 170.805C458.792 170.875 458.98 170.91 459.169 170.911H471.554C471.937 170.91 472.305 170.765 472.576 170.505C472.847 170.246 473 169.895 473 169.528V157.689C472.999 157.323 472.846 156.972 472.575 156.713C472.304 156.454 471.937 156.307 471.554 156.306Z" fill="#E6E6E6"/>
<path d="M471.554 176.49H459.169C458.98 176.49 458.792 176.526 458.617 176.595C458.442 176.665 458.283 176.767 458.149 176.895C458.015 177.024 457.91 177.176 457.837 177.344C457.765 177.512 457.728 177.691 457.729 177.872V189.711C457.728 189.892 457.765 190.072 457.837 190.24C457.91 190.407 458.015 190.56 458.149 190.688C458.283 190.817 458.442 190.919 458.617 190.988C458.792 191.058 458.98 191.094 459.169 191.094H471.554C471.937 191.094 472.305 190.948 472.576 190.689C472.847 190.429 473 190.078 473 189.711V177.872C473 177.506 472.847 177.154 472.576 176.895C472.305 176.636 471.937 176.49 471.554 176.49Z" fill="#E6E6E6"/>
<path d="M186.909 351.039H186.564L186.859 351.002L186.909 351.039Z" fill="#2F2E41"/>
<path d="M157.278 130.329C178.262 130.329 195.273 114.061 195.273 93.9929C195.273 73.9251 178.262 57.6569 157.278 57.6569C136.294 57.6569 119.283 73.9251 119.283 93.9929C119.283 114.061 136.294 130.329 157.278 130.329Z" fill="#FFB6B6"/>
<path d="M190.552 67.3519C190.552 67.3519 200.489 49.1839 178.626 47.5323C178.626 47.5323 159.988 31.3632 140.991 44.5763C140.991 44.5763 130.628 44.5763 124.962 55.7904C124.962 55.7904 116.812 52.8345 115.021 60.7454C115.021 60.7454 109.058 77.2618 115.021 92.1265C120.985 106.991 122.965 108.643 122.965 108.643C122.965 108.643 113.166 77.4782 137.018 75.8265C160.871 74.1748 187.562 59.9196 189.55 78.0875C191.538 96.2555 194.529 100.732 194.529 100.732C194.529 100.732 213.409 74.7843 190.552 67.3519Z" fill="#2F2E41"/>
<path d="M255.563 183.542L255.441 184.159L254.067 191.094L244.574 239.065L244.013 241.89L242.834 247.862L241.221 256.01L237.645 274.066L236.622 279.24L236.238 281.182L236.105 281.862L235.042 287.218L234.72 288.835L232.128 307.199L229.865 323.202L237.439 330.446L232.924 334.764L229.96 351.001L229.965 351.038H108.993C104.099 348.007 99.2753 344.881 94.5224 341.662L95.5179 334.535C95.5179 334.535 98.9435 321.809 97.5031 320.287C96.0684 318.766 92.9207 316.049 92.9207 316.049L96.8859 307.199L97.4364 305.97L96.5133 287.659L96.4911 287.218L96.1852 281.182L96.1463 280.405L96.0851 279.24L94.9117 256.01L94.8894 255.627L94.5336 248.585L94.1999 241.89L94.0553 239.065L92.6261 210.809L91.6584 191.62L90.8131 174.915L94.211 173.814L130.553 162.002L145.607 143.287L176.939 143.51L192.277 143.622L217.87 166.321L223.692 168.98L223.737 169.001L227.913 170.911L238.502 175.745L249.696 180.861L255.441 183.483L255.563 183.542Z" fill="#CACACA"/>
<path d="M149.656 296.526C147.36 297.376 144.897 297.735 142.441 297.577C139.984 297.419 137.593 296.748 135.437 295.61C133.281 294.473 131.412 292.897 129.962 290.994C128.511 289.092 127.515 286.908 127.042 284.597L67.7831 276.556L88.3833 254.271L141.499 265.323C145.611 264.821 149.773 265.78 153.196 268.017C156.618 270.253 159.064 273.613 160.07 277.459C161.075 281.305 160.571 285.371 158.651 288.885C156.732 292.399 153.532 295.118 149.656 296.526V296.526Z" fill="#FFB6B6"/>
<path d="M123.235 256.01C122.137 254.679 120.583 253.762 118.847 253.42L94.5335 248.585L92.0366 248.091C90.5854 247.801 89.2146 247.222 88.0138 246.39C86.813 245.559 85.8093 244.495 85.0683 243.267C84.2998 241.978 83.8348 240.544 83.7058 239.065C83.59 237.721 83.7583 236.368 84.2008 235.087L92.626 210.809L98.0926 195.056C98.7551 193.156 99.1461 191.179 99.255 189.179C99.5595 183.644 97.7688 178.19 94.2109 173.815C91.0829 169.969 86.7444 167.187 81.8364 165.881C76.9284 164.575 71.7112 164.813 66.9555 166.56C66.8165 166.608 66.6719 166.661 66.5329 166.714C63.1224 168.017 60.0753 170.06 57.6325 172.682C55.1896 175.304 53.418 178.434 52.4575 181.824L46.5182 202.486L34.2669 245.081C33.0405 249.348 32.7927 253.819 33.5405 258.187C34.2884 262.554 36.0142 266.716 38.5998 270.387C41.1854 274.057 44.5698 277.15 48.5213 279.454C52.4728 281.758 56.8981 283.218 61.4945 283.734L96.5132 287.659L112.719 289.478C114.592 289.694 116.482 289.226 118.012 288.168C119.541 287.111 120.598 285.541 120.971 283.772C120.998 283.675 121.018 283.578 121.033 283.479L121.422 281.182L124.72 261.833L124.753 261.637C124.925 260.649 124.878 259.639 124.617 258.669C124.355 257.7 123.885 256.794 123.235 256.01Z" fill="#CACACA"/>
<path d="M187.402 297.146C189.801 297.679 192.292 297.702 194.701 297.214C197.11 296.726 199.377 295.739 201.344 294.322C203.311 292.905 204.929 291.093 206.084 289.014C207.24 286.934 207.904 284.638 208.031 282.286L265.513 266.335L241.832 247.051L190.877 265.155C186.732 265.213 182.753 266.723 179.695 269.399C176.636 272.075 174.71 275.731 174.281 279.674C173.853 283.618 174.952 287.574 177.37 290.794C179.789 294.015 183.358 296.275 187.402 297.146V297.146Z" fill="#FFB6B6"/>
<path d="M294.052 230.652L266.713 170.48C264.477 165.54 260.484 161.517 255.441 159.125C253.882 158.391 252.245 157.821 250.558 157.423C250.297 157.359 250.035 157.301 249.774 157.253C246.197 156.507 242.487 156.572 238.941 157.445C235.7 158.241 232.67 159.682 230.05 161.673C227.431 163.664 225.279 166.161 223.737 169.001C223.72 169.025 223.705 169.05 223.692 169.076C221.969 172.264 221.052 175.795 221.017 179.383C220.981 182.972 221.827 186.519 223.486 189.738L223.826 190.387L243.145 227.493C243.805 228.762 244.176 230.15 244.236 231.565C244.295 232.981 244.041 234.393 243.489 235.709C242.938 237.024 242.102 238.213 241.036 239.197C239.971 240.182 238.699 240.94 237.306 241.421L235.949 241.89L211.546 250.319C209.715 250.944 208.209 252.224 207.345 253.889C206.481 255.555 206.326 257.476 206.914 259.249L206.975 259.435L213.815 280.368C213.849 280.464 213.882 280.559 213.921 280.655C213.981 280.836 214.055 281.012 214.143 281.182C214.87 282.741 216.155 284.001 217.767 284.735C219.379 285.469 221.212 285.629 222.936 285.186L236.105 281.862L238.791 281.182L272.797 272.592C277.272 271.462 281.438 269.42 285.011 266.606C288.583 263.792 291.478 260.273 293.497 256.29C295.515 252.307 296.61 247.954 296.706 243.529C296.802 239.104 295.896 234.711 294.052 230.652L294.052 230.652Z" fill="#CACACA"/>
<path d="M24.9686 281.182C32.8491 290.374 41.3479 299.065 50.411 307.199H301.76C304.182 307.203 306.503 308.125 308.215 309.763C309.926 311.401 310.889 313.621 310.891 315.937L311.253 376.848C326.716 370.054 341.196 361.379 354.335 351.038C357.984 348.172 361.519 345.181 364.941 342.066C367.182 340.035 369.369 337.953 371.503 335.822C387.499 319.886 400.452 301.393 409.775 281.182H24.9686Z" fill="#3F3D56"/>
<path d="M371.503 335.822C369.373 337.955 367.185 340.036 364.941 342.066H311.436V335.822H371.503Z" fill="white"/>
<path d="M255.063 136.123C254.798 135.657 254.407 135.267 253.931 134.996C253.454 134.724 252.909 134.581 252.354 134.581H70.0365C69.2191 134.583 68.4358 134.895 67.8583 135.448C67.2809 136.001 66.9562 136.751 66.9556 137.533V241.89H255.441V137.533C255.444 137.04 255.314 136.554 255.063 136.123Z" fill="#3F3D56"/>
<path d="M66.7905 239.064V251.942C66.7905 252.476 66.9004 253.004 67.1141 253.498C67.3277 253.991 67.6408 254.439 68.0355 254.817C68.4302 255.194 68.8989 255.494 69.4146 255.698C69.9304 255.902 70.4831 256.007 71.0413 256.007H140.61V281.422H139.686C139.613 281.422 139.541 281.436 139.474 281.462C139.407 281.489 139.347 281.528 139.295 281.577C139.244 281.626 139.203 281.684 139.176 281.748C139.148 281.812 139.134 281.881 139.134 281.95V283.718C139.134 283.787 139.148 283.856 139.176 283.92C139.203 283.984 139.244 284.042 139.295 284.091C139.347 284.14 139.407 284.179 139.474 284.206C139.541 284.232 139.613 284.246 139.686 284.246H182.873C182.946 284.246 183.017 284.232 183.084 284.206C183.151 284.179 183.212 284.14 183.264 284.091C183.315 284.042 183.355 283.984 183.383 283.92C183.411 283.856 183.425 283.787 183.425 283.718V281.95C183.425 281.881 183.411 281.812 183.383 281.748C183.355 281.684 183.315 281.626 183.264 281.577C183.212 281.528 183.151 281.489 183.084 281.462C183.017 281.436 182.946 281.422 182.873 281.422H181.949V256.007H251.517C252.076 256.007 252.628 255.902 253.144 255.698C253.66 255.494 254.129 255.194 254.523 254.817C254.918 254.439 255.231 253.991 255.445 253.498C255.658 253.004 255.768 252.476 255.768 251.942V239.064H66.7905Z" fill="#3F3D56"/>
<path d="M158.996 202.103C168.611 202.103 176.406 194.649 176.406 185.453C176.406 176.258 168.611 168.803 158.996 168.803C149.381 168.803 141.586 176.258 141.586 185.453C141.586 194.649 149.381 202.103 158.996 202.103Z" fill="#FFBD3D"/>
<path d="M203.355 92.0075H200.574C200.574 71.904 179.77 58.7305 158.782 58.7198C155.729 58.7113 152.683 58.9946 149.689 59.5654C146.319 60.209 142.821 60.9801 139.384 61.9853C125.832 65.9581 113.264 73.6378 113.264 92.0075C113.261 95.575 113.735 99.1281 114.676 102.58L111.985 103.25C110.986 99.5791 110.482 95.8009 110.483 92.0075C110.483 75.9566 117.373 64.9317 129.274 58.3582C135.531 54.9012 143.166 52.6728 151.914 51.5879C155.554 51.1247 159.234 51.0178 162.897 51.2688C187.033 52.9281 203.355 70.6276 203.355 92.0075Z" fill="#FFBD3D"/>
<path d="M207.987 93.4806L206.892 85.7371C206.621 83.7815 205.636 81.9805 204.111 80.6527C203.132 79.7871 201.96 79.1458 200.683 78.7773C199.406 78.4087 198.059 78.3226 196.743 78.5254L195.002 78.7541C194.526 78.814 194.066 78.9638 193.651 79.1948C193.236 79.4258 192.873 79.7333 192.583 80.0996C192.29 80.4646 192.076 80.8815 191.953 81.326C191.83 81.7706 191.8 82.234 191.865 82.6897L194.396 100.527C194.5 101.254 194.841 101.932 195.37 102.463C195.899 102.995 196.589 103.354 197.343 103.49C197.566 103.533 197.794 103.554 198.022 103.554C198.185 103.554 198.349 103.543 198.511 103.522L200.457 103.272C201.644 103.121 202.786 102.74 203.813 102.152C204.84 101.564 205.731 100.781 206.43 99.852C206.58 99.6499 206.725 99.4425 206.858 99.2297C207.901 97.4895 208.298 95.4639 207.987 93.4806Z" fill="#FFBD3D"/>
<path d="M193.879 79.0785C193.368 79.3157 192.924 79.6658 192.583 80.0996C192.29 80.4647 192.076 80.8815 191.953 81.326C191.83 81.7706 191.8 82.234 191.865 82.6897L194.396 100.527C194.5 101.254 194.841 101.932 195.37 102.463C195.899 102.995 196.589 103.354 197.343 103.49L193.879 79.0785Z" fill="white"/>
<path d="M207.987 93.4806L206.892 85.7371C206.621 83.7815 205.636 81.9805 204.111 80.6527L206.63 98.4001C206.668 98.685 206.745 98.9639 206.858 99.2298C207.901 97.4896 208.298 95.4639 207.987 93.4806Z" fill="#3F3D56"/>
<path d="M199.329 99.0599C200.09 98.9612 200.472 97.2296 200.183 95.1921C199.894 93.1547 199.043 91.5831 198.282 91.6818C197.521 91.7805 197.139 93.5122 197.428 95.5496C197.717 97.587 198.568 99.1586 199.329 99.0599Z" fill="#3F3D56"/>
<path d="M197.66 89.4869C198.421 89.3882 198.804 87.6565 198.515 85.6191C198.226 83.5817 197.375 82.0101 196.614 82.1088C195.853 82.2075 195.47 83.9392 195.759 85.9766C196.048 88.014 196.899 89.5856 197.66 89.4869Z" fill="#3F3D56"/>
<path d="M208.227 93.2098C208.987 93.111 209.37 91.3794 209.081 89.342C208.792 87.3045 207.941 85.7329 207.18 85.8316C206.419 85.9303 206.037 87.662 206.326 89.6994C206.615 91.7368 207.466 93.3085 208.227 93.2098Z" fill="#3F3D56"/>
<path d="M158.782 58.7198C155.729 58.7113 152.683 58.9945 149.689 59.5654C146.319 60.2089 142.821 60.9801 139.384 61.9853C134.018 61.7353 130.069 60.4057 129.274 58.3581C135.531 54.9012 143.166 52.6728 151.914 51.5879C155.554 51.1247 159.234 51.0178 162.897 51.2688C163.285 51.4862 163.62 51.7796 163.881 52.1297C164.142 52.4799 164.322 52.8788 164.41 53.3004C164.671 55.1512 162.463 57.119 158.782 58.7198Z" fill="#3F3D56"/>
<path d="M123.279 110.462L118.997 93.4381C118.844 92.8239 118.505 92.2665 118.023 91.836C117.54 91.4055 116.935 91.121 116.283 91.0182C116.099 90.9908 115.913 90.9766 115.727 90.9757C115.465 90.9766 115.204 91.0069 114.949 91.0661L113.291 91.449C111.158 91.9425 109.316 93.2254 108.17 95.0162C107.024 96.8069 106.668 98.9592 107.18 101.001L109.098 108.638C109.536 110.436 110.58 112.047 112.068 113.222C112.309 113.409 112.562 113.581 112.824 113.738C113.756 114.297 114.796 114.671 115.882 114.84C116.968 115.008 118.078 114.966 119.147 114.717L120.799 114.334C121.236 114.237 121.647 114.054 122.006 113.797C122.54 113.424 122.946 112.909 123.173 112.315C123.4 111.721 123.437 111.076 123.279 110.462Z" fill="#FFBD3D"/>
<path d="M114.302 107.295C115.049 107.123 115.246 105.363 114.743 103.364C114.24 101.365 113.227 99.8838 112.481 100.056C111.734 100.227 111.537 101.987 112.04 103.986C112.543 105.985 113.556 107.466 114.302 107.295Z" fill="#3F3D56"/>
<path d="M108.741 108.89C109.488 108.718 109.685 106.959 109.182 104.96C108.679 102.961 107.666 101.479 106.919 101.651C106.173 101.823 105.976 103.583 106.479 105.582C106.982 107.581 107.995 109.062 108.741 108.89Z" fill="#3F3D56"/>
<path d="M123.552 110.398L119.27 93.3742C119.103 92.7097 118.735 92.107 118.211 91.6416C117.688 91.1761 117.033 90.8686 116.328 90.7576L122.173 114.009C122.75 113.605 123.189 113.046 123.434 112.404C123.68 111.761 123.721 111.063 123.552 110.398Z" fill="white"/>
<path d="M108.147 97.629C108.029 97.1555 107.807 96.7114 107.497 96.326C106.895 97.8168 106.784 99.4481 107.18 101.001L109.098 108.638C109.536 110.436 110.58 112.047 112.068 113.222L108.147 97.629Z" fill="#3F3D56"/>
</g>
<defs>
<clipPath id="clip0_42_2">
<rect width="473" height="394" fill="white"/>
</clipPath>
</defs>
</svg>
