<svg width="556" height="476" viewBox="0 0 556 476" fill="none" xmlns="http://www.w3.org/2000/svg">
<g clip-path="url(#clip0_155_249)">
<path d="M434.338 76.7488H396.56V398.701C396.56 403.753 395.565 408.755 393.631 413.421C391.697 418.088 388.863 422.329 385.289 425.9C381.716 429.472 377.474 432.306 372.806 434.239C368.137 436.172 363.133 437.167 358.08 437.167H69.2549V437.535C69.2549 442.586 70.2502 447.588 72.184 452.255C74.1178 456.922 76.9522 461.162 80.5254 464.734C84.0986 468.306 88.3406 471.139 93.0092 473.072C97.6778 475.005 102.682 476 107.735 476H434.338C439.391 476 444.395 475.005 449.063 473.072C453.732 471.139 457.974 468.306 461.547 464.734C465.12 461.162 467.955 456.922 469.889 452.255C471.822 447.588 472.818 442.586 472.818 437.535V115.214C472.818 110.163 471.822 105.161 469.889 100.494C467.955 95.8273 465.12 91.5869 461.547 88.0151C457.974 84.4432 453.732 81.6099 449.063 79.6768C444.395 77.7438 439.391 76.7488 434.338 76.7488V76.7488Z" fill="#F2F2F2"/>
<path d="M387.591 43.722H15.972C7.15091 43.722 0 50.8701 0 59.6879V427.007C0 435.825 7.15091 442.973 15.972 442.973H387.591C396.412 442.973 403.563 435.825 403.563 427.007V59.6879C403.563 50.8701 396.412 43.722 387.591 43.722Z" fill="#F2F2F2"/>
<path d="M38.4806 51.6322C30.3739 51.6322 22.5991 54.8514 16.8668 60.5816C11.1345 66.3117 7.91406 74.0835 7.91406 82.1871V404.508C7.91406 412.612 11.1345 420.383 16.8668 426.114C22.5991 431.844 30.3739 435.063 38.4806 435.063H246.926C329.064 435.063 395.649 368.503 395.649 286.397V82.1871C395.649 74.0835 392.429 66.3117 386.697 60.5816C380.964 54.8514 373.19 51.6322 365.083 51.6322H38.4806Z" fill="white"/>
<path d="M412.394 267.943C410.725 268.405 408.975 268.5 407.265 268.219C405.556 267.939 403.927 267.291 402.493 266.32C401.058 265.349 399.852 264.078 398.958 262.595C398.063 261.112 397.501 259.453 397.311 257.731L340.238 240.502L341.124 223.55L408.761 244.509C411.683 244.405 414.542 245.376 416.796 247.238C419.05 249.1 420.542 251.724 420.99 254.613C421.438 257.501 420.81 260.454 419.226 262.911C417.642 265.367 415.211 267.158 412.394 267.943V267.943Z" fill="#FFB6B6"/>
<path d="M220.242 180.498C214.463 175.677 222.925 151.783 220.643 144.858C220.507 144.438 220.377 144.018 220.254 143.596C219.996 142.702 220.054 141.747 220.418 140.891L241.868 130.805C247.458 133.088 252.608 136.324 257.088 140.37L290.226 178.203L323.147 207.925L337.593 214.362L385.46 235.704L384.964 237.134L384.96 237.138L379.698 252.413L379.698 252.422L390.224 259.756L355.765 254.567L332.975 245.17L311.031 236.124C278.631 216.632 225.323 206.529 220.242 180.498Z" fill="#FFBD3D"/>
<path d="M372.968 355.827C372.336 356.115 371.63 356.201 370.947 356.075C370.263 355.948 369.636 355.615 369.148 355.12C368.661 354.624 368.338 353.991 368.222 353.306C368.107 352.622 368.205 351.918 368.503 351.29C368.456 350.943 368.422 350.694 368.375 350.347C368.319 350.29 368.263 350.233 368.207 350.176C362.543 344.433 352.747 348.413 352.647 356.476C352.559 363.634 351.778 371.08 353.58 377.888C354.378 380.897 355.692 383.744 357.464 386.304C346.244 375.649 337.448 362.707 331.671 348.356C330.225 344.753 328.982 341.073 327.947 337.331C327.102 334.263 326.393 331.164 325.821 328.035C322.734 311.048 323.723 293.572 328.705 277.041C332.488 272.461 334.775 266.831 335.259 260.912C335.439 258.781 335.311 256.635 334.877 254.541C334.359 254.832 329.513 247.124 329.72 246.448C328.496 245.599 326.904 245.571 325.621 244.777C319.24 240.83 313.937 244.09 314.016 252.895C308.949 258.645 311.018 263.984 316.965 267.534C320.748 269.793 322.853 274.056 326.424 276.666C326.315 277.042 326.194 277.413 326.085 277.789C324.102 284.688 322.8 291.764 322.197 298.916C320.395 291.973 315.957 284.517 311.772 280.241C307.005 275.368 300.49 272.266 294.465 268.816C287.227 264.673 278.437 271.268 280.674 279.299C280.696 279.377 280.718 279.455 280.74 279.532C281.468 279.629 282.192 279.752 282.912 279.9C283.819 280.091 284.646 280.552 285.286 281.221C285.926 281.89 286.349 282.737 286.5 283.65C286.65 284.564 286.521 285.501 286.129 286.34C285.737 287.179 285.101 287.88 284.304 288.352L284.222 288.4C285.292 290.456 286.517 292.427 287.885 294.297C290.707 316.19 304.682 318.977 320.631 312.964C321.052 313.003 321.464 313.046 321.881 313.076C322.289 322.788 323.958 332.406 326.847 341.688C328.568 347.157 330.73 352.478 333.309 357.599L333.207 357.422C329.697 351.985 324.417 347.925 318.259 345.928C309.147 343.045 298.63 344.852 289.42 343.29C284.986 342.538 281.553 347.181 283.828 351.058C283.865 351.12 283.901 351.182 283.938 351.243C285.22 351.251 286.501 351.338 287.773 351.504C288.501 351.601 289.225 351.724 289.945 351.872C290.851 352.063 291.679 352.523 292.319 353.192C292.959 353.862 293.382 354.708 293.532 355.622C293.683 356.535 293.554 357.473 293.162 358.312C292.77 359.151 292.134 359.852 291.337 360.323L291.255 360.372C291.196 360.406 291.146 360.436 291.087 360.47C294.773 364.212 299.076 367.291 303.808 369.573C313.959 385.605 328.399 381.727 341.118 370.779L341.127 370.775C345.561 377.153 350.646 383.053 356.301 388.38L381.28 378.373C381.259 378.059 381.224 377.741 381.194 377.431C378.94 378.502 376.563 379.294 374.117 379.788C375.059 376.773 375.993 373.739 376.935 370.723C376.96 370.664 376.981 370.604 376.998 370.542C377.472 369.002 377.958 367.467 378.431 365.927L378.431 365.926C377.052 362.339 375.216 358.945 372.969 355.827L372.968 355.827Z" fill="#F2F2F2"/>
<path d="M235.668 377.802L235.382 377.444C234.557 372.143 235.668 377.802 235.668 377.802Z" fill="#2F2E41"/>
<path d="M250.3 434.988H170.274C164.057 419.537 159.741 408.487 159.741 408.487C159.741 408.487 158.693 419.311 157.198 434.988H84.8492C84.1721 392.386 83.2242 348.645 82.9121 334.753L221.78 337.846L235.592 355.355C235.64 355.648 235.687 355.97 235.746 356.334C236.305 359.892 243.823 398.082 250.3 434.988Z" fill="#2F2E41"/>
<path d="M249.087 135.363L249.074 135.338C248.632 134.519 247.922 133.877 247.063 133.52C238.276 126.705 228.656 123.599 217.859 125.723C216.091 120.374 214.443 120.374 214.443 120.374L191.026 112.643L187.658 92.0772L129.961 90.125L124.717 115.79C124.717 115.79 92.4676 121.568 92.4676 125.747C92.4676 129.926 97.8425 129.926 92.4676 129.926C87.0926 129.926 85.6533 125.15 81.001 129.926C80.6024 130.328 80.1818 130.706 79.7409 131.061C79.6871 131.108 79.6274 131.15 79.5737 131.198C74.3159 135.332 70.184 140.723 67.559 146.873C64.9341 153.023 63.9005 159.736 64.5537 166.39L74.4734 265.031L85.0621 370.286L229.971 376.315L239.675 286.749L249.547 137.727C249.635 136.91 249.475 136.086 249.087 135.363V135.363Z" fill="#FFBD3D"/>
<path d="M11.2085 399.882C12.0358 401.963 12.8707 403.487 13.7131 404.241L294.751 404.838C295.594 404.084 296.428 402.56 297.256 400.479C307.085 375.76 288.542 348.955 261.932 348.904L46.547 348.495C19.9724 348.445 1.39221 375.196 11.2085 399.882Z" fill="white"/>
<path d="M294.98 405.435L294.751 405.435L13.4848 404.837L13.3153 404.686C12.4393 403.901 11.5689 402.402 10.6541 400.103C8.32753 394.352 7.46939 388.113 8.15705 381.948C8.84472 375.782 11.0566 369.885 14.5932 364.788C18.1242 359.585 22.876 355.326 28.4334 352.382C33.9909 349.437 40.1849 347.898 46.4745 347.899H46.5486L261.934 348.307C268.246 348.319 274.459 349.876 280.031 352.841C285.603 355.806 290.364 360.09 293.899 365.318C297.43 370.431 299.637 376.34 300.32 382.515C301.003 388.691 300.141 394.939 297.811 400.7C296.896 402.999 296.026 404.498 295.15 405.282L294.98 405.435ZM32.4906 403.588L270.788 402.866C287.608 402.815 299.982 386.584 294.997 370.525C294.527 368.919 293.823 367.39 292.91 365.987C289.484 360.921 284.87 356.769 279.47 353.896C274.07 351.022 268.049 349.513 261.931 349.501L46.5463 349.093H46.4745C43.7396 349.184 41.0426 349.76 38.5094 350.795C24.5969 356.057 15.2937 369.286 14.5201 384.135C14.5102 384.324 14.5004 384.513 14.4906 384.703C14.3692 387.058 14.713 389.415 15.5026 391.637C16.2922 393.86 17.5119 395.905 19.0923 397.657C20.6727 399.408 22.5827 400.832 24.7133 401.845C26.8439 402.859 29.1533 403.443 31.5097 403.564C31.8364 403.581 32.1634 403.589 32.4906 403.588L32.4906 403.588Z" fill="#E6E6E6"/>
<path d="M349.408 188.923C346.33 176.001 346.843 163.273 352.114 150.803C352.169 150.032 352.529 149.314 353.113 148.807C353.698 148.3 354.46 148.045 355.232 148.099L384.032 150.142C384.803 150.198 385.522 150.557 386.029 151.141C386.536 151.726 386.79 152.487 386.736 153.259L384.03 191.379C383.975 192.15 383.615 192.868 383.031 193.375C382.446 193.882 381.684 194.136 380.913 194.082L352.113 192.04C351.341 191.984 350.623 191.625 350.115 191.04C349.608 190.456 349.354 189.695 349.408 188.923V188.923Z" fill="#F2F2F2"/>
<path d="M352.434 177.566C349.971 171.198 351.546 162.44 354.174 153.059C354.226 152.336 354.563 151.664 355.11 151.189C355.658 150.715 356.371 150.476 357.094 150.527L381.845 152.282C382.568 152.334 383.241 152.671 383.716 153.218C384.19 153.765 384.429 154.479 384.378 155.201L381.97 189.123C381.918 189.845 381.582 190.518 381.034 190.992C380.487 191.467 379.773 191.705 379.05 191.655L363.717 190.567C360.498 190.335 357.502 188.836 355.387 186.399C353.271 183.961 352.21 180.785 352.434 177.566Z" fill="white"/>
<path d="M369.57 179.228C368.814 179.098 368.058 178.968 367.302 178.838C367.651 178.016 367.852 177.14 367.896 176.248C368.254 171.478 368.29 166.661 368.481 161.88C368.476 161.706 368.421 161.536 368.321 161.392C368.222 161.248 368.083 161.136 367.922 161.069C367.76 161.002 367.582 160.983 367.41 161.015C367.238 161.046 367.079 161.127 366.952 161.247C365.053 162.819 363.154 164.391 361.256 165.963C360.367 166.699 361.641 167.96 362.523 167.23C363.885 166.101 365.248 164.973 366.611 163.845C366.486 166.977 366.361 170.11 366.236 173.242C366.176 174.746 366.359 176.571 365.743 177.984C365.659 178.175 365.549 178.353 365.416 178.514C364.579 178.37 363.742 178.227 362.905 178.083C362.303 177.98 361.538 178.482 361.803 179.185C362.379 180.712 364.078 181.195 365.534 180.606C365.662 180.548 365.786 180.482 365.906 180.407L369.094 180.955C370.222 181.148 370.706 179.423 369.57 179.228Z" fill="#6C63FF"/>
<path d="M516.629 317.276C513.551 304.353 514.064 291.625 519.334 279.156C519.39 278.384 519.75 277.666 520.334 277.159C520.919 276.652 521.68 276.398 522.452 276.452L551.252 278.495C552.024 278.55 552.742 278.91 553.249 279.494C553.756 280.078 554.011 280.84 553.957 281.611L551.251 319.731C551.195 320.503 550.836 321.221 550.251 321.728C549.667 322.234 548.905 322.489 548.133 322.435L519.333 320.392C518.561 320.336 517.843 319.977 517.336 319.393C516.829 318.809 516.575 318.047 516.629 317.276V317.276Z" fill="#F2F2F2"/>
<path d="M519.655 305.918C517.192 299.551 518.767 290.793 521.395 281.411C521.447 280.689 521.784 280.017 522.331 279.542C522.878 279.067 523.592 278.829 524.315 278.879L549.066 280.635C549.789 280.687 550.461 281.024 550.936 281.571C551.411 282.118 551.649 282.831 551.599 283.554L549.191 317.475C549.139 318.198 548.802 318.87 548.255 319.345C547.707 319.82 546.994 320.058 546.271 320.007L530.938 318.92C527.719 318.688 524.723 317.189 522.607 314.751C520.492 312.314 519.43 309.137 519.655 305.918V305.918Z" fill="white"/>
<path d="M535.813 299.451C536.142 299.297 536.453 299.108 536.741 298.888C537.509 298.255 538.076 297.414 538.375 296.465C538.673 295.516 538.69 294.502 538.422 293.544C537.261 289.279 532.158 289.253 528.634 289.766C527.497 289.932 527.981 291.658 529.11 291.493C531.485 291.147 535.213 290.868 536.489 293.46C536.78 294.069 536.884 294.751 536.787 295.419C536.689 296.087 536.396 296.711 535.943 297.212C535.402 297.755 534.69 298.093 533.927 298.17C533.188 297.849 532.386 297.7 531.581 297.733C530.751 297.772 530.288 298.979 531.129 299.402C531.873 299.772 532.692 299.965 533.524 299.966C534.213 300.298 534.788 300.827 535.178 301.485C535.568 302.144 535.754 302.902 535.713 303.666C535.634 304.187 535.453 304.688 535.181 305.139C534.908 305.59 534.549 305.983 534.125 306.296C533.7 306.608 533.219 306.834 532.707 306.961C532.195 307.087 531.663 307.111 531.142 307.032L531.12 307.029C529.994 306.803 529.512 308.528 530.643 308.756C532.161 309.042 533.73 308.713 535.005 307.843C536.281 306.972 537.158 305.631 537.444 304.114C537.459 304.032 537.473 303.949 537.485 303.866C537.556 303.052 537.442 302.232 537.153 301.468C536.864 300.703 536.405 300.014 535.813 299.451V299.451Z" fill="#6C63FF"/>
<path d="M484.38 113.105C481.302 100.183 481.815 87.4553 487.085 74.9854C487.141 74.2139 487.501 73.496 488.085 72.9892C488.67 72.4823 489.431 72.2279 490.203 72.2818L519.003 74.3246C519.775 74.3802 520.493 74.7395 521 75.3238C521.507 75.9081 521.762 76.6696 521.708 77.4412L519.002 115.561C518.946 116.333 518.587 117.051 518.002 117.557C517.418 118.064 516.656 118.319 515.884 118.265L487.084 116.222C486.312 116.166 485.594 115.807 485.087 115.223C484.58 114.638 484.326 113.877 484.38 113.105V113.105Z" fill="#F2F2F2"/>
<path d="M487.405 101.748C484.942 95.3804 486.517 86.6224 489.145 77.2413C489.197 76.5187 489.534 75.8464 490.081 75.3717C490.628 74.897 491.342 74.6588 492.065 74.7092L516.816 76.4648C517.539 76.5169 518.211 76.8534 518.686 77.4006C519.161 77.9478 519.399 78.661 519.349 79.3837L516.941 113.305C516.889 114.028 516.552 114.7 516.005 115.175C515.457 115.65 514.744 115.888 514.021 115.837L498.688 114.75C495.469 114.518 492.473 113.019 490.357 110.581C488.242 108.144 487.18 104.967 487.405 101.748V101.748Z" fill="white"/>
<path d="M502.626 84.6778C500.089 83.7977 497.267 85.8034 496.979 88.4039C496.653 91.3515 499.825 93.6783 502.571 92.8773C503.675 92.555 503.205 90.8262 502.094 91.1502C500.082 91.7374 497.935 89.565 499.092 87.6227C499.355 87.1539 499.754 86.7763 500.237 86.5401C500.72 86.3039 501.264 86.2203 501.795 86.3005C502.246 86.4255 502.662 86.6545 503.009 86.9691C503.356 87.2837 503.624 87.6752 503.792 88.1121C504.78 90.3367 503.606 92.5952 502.051 94.2122C501.163 95.1343 500.123 95.851 499.166 96.6915C498.702 97.0426 498.315 97.4872 498.033 97.9966C497.751 98.506 497.578 99.0689 497.526 99.649C497.552 100.301 497.755 100.935 498.114 101.48C498.473 102.025 498.975 102.462 499.564 102.743C501.092 103.528 502.829 103.278 504.454 103.017C505.589 102.834 505.108 101.108 503.978 101.29C502.557 101.519 500.429 101.865 499.528 100.384C498.757 99.1151 500.346 98.0012 501.212 97.3264C503.388 95.6304 505.588 93.4402 505.915 90.5565C506.182 88.1942 504.981 85.4949 502.626 84.6778Z" fill="#6C63FF"/>
<path d="M65.572 259.171L79.7619 265.559C73.091 270.967 62.9323 278.245 52.9827 281.612L37.1744 270.836C31.2858 248.138 34.893 224.748 41.97 204.97C45.891 193.98 51.0906 183.489 57.4618 173.712C56.8092 167.057 57.8431 160.345 60.468 154.195C63.0929 148.045 67.2245 142.654 72.4818 138.519C72.5415 138.472 72.5953 138.43 72.649 138.382C77.8855 142.924 82.1629 148.465 85.2311 154.68C88.2993 160.895 90.0966 167.66 90.5177 174.577L90.8343 179.807L91.4673 190.111L93.0738 216.426L74.0226 246.037L65.572 259.171Z" fill="#FFBD3D"/>
<path d="M106.395 371.514C106.561 371.722 106.772 371.89 107.012 372.004C107.252 372.119 107.515 372.178 107.781 372.177H204.733C204.998 372.176 205.26 372.117 205.499 372.003C205.738 371.889 205.949 371.723 206.116 371.517C206.283 371.311 206.402 371.07 206.465 370.813C206.527 370.555 206.531 370.287 206.477 370.028L204.972 362.882C204.909 362.59 204.775 362.319 204.581 362.093C204.387 361.866 204.14 361.692 203.861 361.586C203.659 361.507 203.445 361.467 203.228 361.467H109.28C109.063 361.467 108.848 361.507 108.647 361.586C108.368 361.692 108.121 361.866 107.927 362.093C107.733 362.319 107.598 362.59 107.536 362.882L106.031 370.028C105.977 370.287 105.982 370.555 106.045 370.812C106.108 371.069 106.228 371.309 106.395 371.514V371.514Z" fill="#2F2E41"/>
<path d="M69.2783 211.545V323.337C69.2795 324.762 69.8461 326.128 70.8539 327.135C71.8616 328.142 73.2281 328.709 74.6533 328.71H240.381C241.806 328.709 243.172 328.142 244.18 327.135C245.188 326.128 245.755 324.762 245.756 323.337V211.545C245.752 210.122 245.185 208.758 244.177 207.752C243.17 206.746 241.805 206.18 240.381 206.178H74.6533C73.2293 206.18 71.8642 206.746 70.8567 207.752C69.8493 208.758 69.2817 210.122 69.2783 211.545V211.545Z" fill="#3F3D56"/>
<path d="M136.782 306.777V368.004H179.692V306.777C179.693 306.336 179.552 305.907 179.291 305.553C179.03 305.198 178.662 304.937 178.241 304.807C178.043 304.741 177.835 304.709 177.626 304.711H138.855C138.306 304.71 137.78 304.927 137.391 305.314C137.002 305.701 136.783 306.226 136.782 306.774V306.777V306.777ZM153.528 327.814C153.54 326.608 154.027 325.454 154.885 324.604C155.743 323.755 156.901 323.278 158.109 323.278C159.316 323.278 160.475 323.755 161.333 324.604C162.191 325.454 162.678 326.608 162.689 327.814V334.919C162.683 336.129 162.198 337.288 161.34 338.141C160.481 338.995 159.32 339.474 158.109 339.474C156.898 339.474 155.736 338.995 154.878 338.141C154.02 337.288 153.534 336.129 153.528 334.919V327.814Z" fill="#2F2E41"/>
<path d="M161.825 87.833C182.449 87.833 199.167 71.1208 199.167 50.5053C199.167 29.8898 182.449 13.1776 161.825 13.1776C141.202 13.1776 124.483 29.8898 124.483 50.5053C124.483 71.1208 141.202 87.833 161.825 87.833Z" fill="#FFB6B6"/>
<path d="M206.536 43.9752C202.51 45.2246 198.629 45.9611 196.011 42.66C193.393 39.3589 194.077 35.5845 190.183 33.9932C187.038 32.7043 183.407 33.2567 180.236 34.4535C179.671 34.6639 179.118 34.9006 178.579 35.1373C178.276 34.8743 177.973 34.6245 177.644 34.3877C175.169 32.6281 172.113 31.8845 169.106 32.3098C171.304 33.3712 173.113 35.0964 174.276 37.2416C173.198 37.7808 172.038 38.1838 171 38.7803C156.74 46.9762 140.88 50.277 142.175 36.5972C146.49 47.96 143.135 52.0107 136.807 62.3872L136.557 62.9921C137.188 60.2698 132.748 60.1408 128.913 61.072C126.08 61.7598 127.913 68.3611 131.544 72.9083C123.427 60.6906 111.268 42.0366 121.782 32.678C123.333 31.2977 124.306 29.3503 124.584 24.3663C124.75 21.4112 129.781 20.6707 132.439 21.9859C132.823 17.5425 134.377 13.28 136.942 9.63061C139.506 5.98125 142.991 3.07495 147.043 1.20657C155.173 -2.41007 163.442 3.15341 172.277 4.23139C177.178 4.8295 180.896 6.80293 181.091 13.056C181.222 17.2202 187.499 18.7112 191.603 19.4476C194.208 19.908 197.142 19.6318 199.221 21.2757C201.629 23.1827 201.655 26.5363 201.642 29.7584C199.286 29.6912 196.964 30.3276 194.972 31.5864C197.41 31.6477 199.767 32.4761 201.708 33.9537C201.745 33.9768 201.78 34.0032 201.813 34.0326C202.523 39.4511 202.234 40.5953 206.536 43.9752Z" fill="#2F2E41"/>
<path d="M233.467 225.984C248.059 221.452 263.679 226.354 278.35 222.17C281.725 221.247 284.915 219.749 287.78 217.743C290.224 215.89 292.519 213.849 294.643 211.638C299.056 207.274 303.849 202.692 310.48 202.743C319.211 202.809 325.916 209.293 331.736 215.018C332.558 215.827 333.826 214.562 333.003 213.751C327.655 208.491 321.877 202.941 314.264 201.371C310.85 200.614 307.285 200.91 304.042 202.22C301.229 203.498 298.658 205.254 296.446 207.412C294.102 209.561 291.94 211.9 289.564 214.015C287.083 216.271 284.226 218.074 281.122 219.342C274.396 222.019 267.018 222.342 259.865 222.264C250.885 222.166 241.691 221.555 232.991 224.257C231.894 224.598 232.362 226.328 233.467 225.984H233.467Z" fill="#3F3D56"/>
<path d="M334.936 202.948L339.421 210.852L341.591 214.676C341.977 215.356 342.373 216.031 342.749 216.716C342.98 217.137 343.484 217.896 343.002 218.295C342.58 218.502 342.105 218.576 341.639 218.508C340.848 218.51 340.057 218.492 339.267 218.484L334.818 218.439L325.625 218.346C325.393 218.354 325.173 218.452 325.011 218.619C324.85 218.786 324.76 219.009 324.76 219.241C324.76 219.474 324.85 219.697 325.011 219.864C325.173 220.031 325.393 220.129 325.625 220.137C330.962 220.191 336.302 220.303 341.639 220.299C342.57 220.388 343.502 220.133 344.258 219.583C344.628 219.214 344.873 218.739 344.959 218.224C345.044 217.709 344.965 217.18 344.733 216.712C344.207 215.564 343.602 214.454 342.921 213.39L340.968 209.948L336.483 202.044C336.359 201.848 336.163 201.707 335.937 201.652C335.711 201.597 335.473 201.632 335.272 201.749C335.072 201.866 334.924 202.057 334.862 202.28C334.799 202.504 334.825 202.743 334.936 202.948V202.948Z" fill="#3F3D56"/>
<path d="M394.221 222.315H352.994C352.769 222.316 352.545 222.273 352.336 222.187C352.127 222.102 351.937 221.976 351.777 221.817C351.617 221.658 351.49 221.469 351.402 221.26C351.315 221.052 351.27 220.829 351.27 220.603C351.269 220.378 351.313 220.154 351.398 219.945C351.484 219.737 351.61 219.547 351.77 219.387C351.929 219.227 352.118 219.1 352.326 219.013C352.535 218.926 352.758 218.881 352.984 218.881C352.988 218.881 352.991 218.881 352.994 218.881H394.221C394.446 218.88 394.67 218.924 394.879 219.009C395.088 219.095 395.278 219.221 395.438 219.38C395.598 219.539 395.726 219.728 395.813 219.936C395.9 220.144 395.945 220.367 395.946 220.593C395.946 220.819 395.902 221.042 395.817 221.251C395.731 221.46 395.605 221.649 395.445 221.809C395.286 221.969 395.097 222.096 394.889 222.183C394.68 222.27 394.457 222.315 394.231 222.315C394.228 222.315 394.224 222.315 394.221 222.315Z" fill="#E6E6E6"/>
<path d="M394.221 249.973H352.994C352.769 249.973 352.545 249.93 352.337 249.844C352.128 249.758 351.938 249.632 351.778 249.473C351.618 249.315 351.491 249.126 351.404 248.918C351.317 248.709 351.272 248.486 351.271 248.261C351.271 248.035 351.315 247.812 351.4 247.603C351.486 247.395 351.612 247.205 351.771 247.045C351.93 246.885 352.119 246.758 352.327 246.671C352.535 246.584 352.758 246.539 352.984 246.539C352.988 246.539 352.991 246.539 352.994 246.539H394.221C394.446 246.538 394.67 246.582 394.878 246.667C395.087 246.753 395.277 246.879 395.437 247.038C395.597 247.197 395.724 247.386 395.811 247.594C395.898 247.802 395.943 248.025 395.944 248.25C395.944 248.476 395.901 248.699 395.815 248.908C395.729 249.117 395.603 249.306 395.444 249.466C395.285 249.626 395.096 249.753 394.888 249.84C394.68 249.927 394.457 249.972 394.231 249.973C394.228 249.973 394.224 249.973 394.221 249.973Z" fill="#E6E6E6"/>
<path d="M434.691 236.144H352.994C352.769 236.145 352.545 236.101 352.336 236.016C352.127 235.93 351.937 235.804 351.777 235.645C351.617 235.486 351.49 235.297 351.402 235.089C351.315 234.881 351.27 234.658 351.27 234.432C351.269 234.206 351.313 233.983 351.399 233.774C351.484 233.565 351.61 233.376 351.77 233.216C351.929 233.056 352.118 232.929 352.326 232.842C352.535 232.755 352.758 232.71 352.984 232.71C352.988 232.71 352.991 232.71 352.994 232.71H434.691C434.917 232.709 435.141 232.752 435.35 232.838C435.558 232.923 435.748 233.049 435.909 233.208C436.069 233.367 436.196 233.556 436.283 233.764C436.37 233.973 436.415 234.196 436.416 234.422C436.417 234.647 436.373 234.871 436.287 235.08C436.201 235.288 436.075 235.478 435.916 235.638C435.757 235.798 435.568 235.925 435.359 236.012C435.151 236.099 434.927 236.143 434.702 236.144C434.698 236.144 434.695 236.144 434.691 236.144Z" fill="#E6E6E6"/>
<path d="M379.994 206.098C389.064 193.807 404.554 188.507 413.895 176.449C416.067 173.708 417.75 170.612 418.869 167.299C419.74 164.359 420.38 161.356 420.781 158.316C421.751 152.187 422.897 145.658 428.27 141.773C435.344 136.656 444.587 137.91 452.669 139.077C452.9 139.104 453.132 139.04 453.317 138.9C453.502 138.759 453.625 138.552 453.66 138.322C453.695 138.092 453.64 137.858 453.505 137.668C453.371 137.479 453.168 137.349 452.939 137.306C445.513 136.234 437.569 135.184 430.506 138.426C427.306 139.838 424.61 142.187 422.773 145.163C421.263 147.858 420.233 150.796 419.729 153.844C419.114 156.963 418.759 160.129 418.098 163.24C417.436 166.526 416.202 169.67 414.452 172.53C410.62 178.669 404.867 183.298 399.057 187.471C391.764 192.709 383.995 197.66 378.587 204.989C377.904 205.914 379.307 207.03 379.994 206.098L379.994 206.098Z" fill="#3F3D56"/>
<path d="M448.094 127.457L456.392 131.17L460.407 132.966C461.12 133.285 461.839 133.594 462.548 133.924C462.983 134.126 463.839 134.44 463.688 135.046C463.585 135.459 463.031 135.791 462.715 136.025C462.079 136.494 461.431 136.948 460.79 137.41L457.179 140.008L449.717 145.376C449.535 145.52 449.416 145.729 449.385 145.959C449.354 146.189 449.413 146.423 449.551 146.61C449.688 146.797 449.893 146.923 450.122 146.962C450.351 147.001 450.587 146.95 450.778 146.819C455.11 143.703 459.479 140.631 463.777 137.468C464.58 136.988 465.179 136.231 465.462 135.34C465.542 134.824 465.458 134.296 465.222 133.83C464.985 133.365 464.608 132.985 464.144 132.746C463.04 132.132 461.894 131.596 460.716 131.142L457.103 129.525L448.805 125.813C448.589 125.728 448.348 125.731 448.133 125.82C447.918 125.909 447.747 126.078 447.655 126.292C447.562 126.505 447.557 126.746 447.639 126.963C447.721 127.181 447.884 127.358 448.094 127.457L448.094 127.457Z" fill="#3F3D56"/>
<path d="M522.622 136.946H481.396C481.17 136.947 480.946 136.903 480.737 136.818C480.529 136.732 480.339 136.606 480.178 136.447C480.018 136.288 479.891 136.099 479.804 135.891C479.717 135.683 479.672 135.46 479.671 135.234C479.67 135.008 479.714 134.785 479.8 134.576C479.886 134.367 480.012 134.177 480.171 134.018C480.33 133.858 480.519 133.731 480.728 133.644C480.936 133.557 481.16 133.512 481.385 133.512C481.389 133.512 481.392 133.512 481.396 133.512H522.622C522.848 133.511 523.072 133.554 523.28 133.64C523.489 133.725 523.679 133.851 523.84 134.01C524 134.169 524.127 134.358 524.214 134.566C524.301 134.775 524.346 134.998 524.347 135.224C524.348 135.449 524.304 135.673 524.218 135.881C524.132 136.09 524.006 136.28 523.847 136.44C523.688 136.6 523.498 136.727 523.29 136.814C523.082 136.901 522.858 136.945 522.632 136.946C522.629 136.946 522.626 136.946 522.622 136.946Z" fill="#6C63FF"/>
<path d="M411.646 260.312C420.716 272.604 436.206 277.904 445.547 289.962C447.719 292.703 449.402 295.798 450.521 299.112C451.393 302.051 452.032 305.055 452.433 308.094C453.403 314.223 454.55 320.753 459.922 324.638C466.996 329.754 476.24 328.5 484.321 327.334C484.552 327.307 484.785 327.37 484.97 327.511C485.155 327.652 485.278 327.859 485.313 328.089C485.348 328.318 485.292 328.553 485.158 328.742C485.023 328.932 484.82 329.062 484.592 329.104C477.165 330.176 469.222 331.227 462.158 327.984C458.958 326.572 456.262 324.223 454.425 321.248C452.915 318.552 451.886 315.615 451.382 312.567C450.767 309.448 450.411 306.282 449.75 303.171C449.088 299.885 447.854 296.74 446.104 293.881C442.272 287.741 436.519 283.113 430.71 278.94C423.417 273.702 415.647 268.75 410.239 261.422C409.557 260.497 410.959 259.381 411.646 260.312L411.646 260.312Z" fill="#3F3D56"/>
<path d="M479.747 338.953L488.045 335.241L492.06 333.445C492.773 333.126 493.492 332.817 494.201 332.487C494.636 332.284 495.492 331.971 495.341 331.365C495.238 330.952 494.684 330.619 494.368 330.386C493.732 329.916 493.084 329.462 492.443 329.001L488.832 326.403L481.37 321.035C481.188 320.891 481.069 320.681 481.038 320.451C481.007 320.221 481.066 319.988 481.204 319.801C481.341 319.614 481.546 319.487 481.775 319.448C482.004 319.409 482.24 319.461 482.431 319.592C486.763 322.708 491.132 325.779 495.43 328.943C496.233 329.423 496.832 330.18 497.115 331.071C497.195 331.587 497.111 332.115 496.875 332.581C496.638 333.046 496.261 333.426 495.797 333.665C494.693 334.278 493.547 334.814 492.369 335.269L488.756 336.885L480.458 340.598C480.242 340.682 480.001 340.68 479.786 340.591C479.572 340.501 479.4 340.332 479.308 340.119C479.216 339.905 479.21 339.665 479.292 339.447C479.374 339.23 479.537 339.053 479.747 338.953H479.747Z" fill="#3F3D56"/>
<path d="M554.274 334.549H513.048C512.593 334.551 512.155 334.372 511.832 334.051C511.509 333.73 511.326 333.295 511.324 332.84C511.322 332.385 511.501 331.947 511.821 331.624C512.142 331.3 512.577 331.117 513.033 331.115C513.038 331.115 513.043 331.115 513.048 331.115H554.274C554.729 331.113 555.167 331.293 555.49 331.613C555.813 331.934 555.996 332.369 555.998 332.824C556 333.28 555.821 333.717 555.501 334.04C555.18 334.364 554.745 334.547 554.289 334.549C554.284 334.549 554.279 334.549 554.274 334.549Z" fill="#6C63FF"/>
<path d="M84.3069 267.803C83.5263 269.349 82.4192 270.707 81.0619 271.784C79.7047 272.86 78.1298 273.629 76.4461 274.037C74.7624 274.444 73.0102 274.482 71.3107 274.146C69.6111 273.811 68.0047 273.11 66.6027 272.093L23.6656 292.518L20.7881 280.488L64.515 254.73C66.4034 252.498 69.0451 251.036 71.9396 250.622C74.8342 250.207 77.7804 250.868 80.22 252.479C82.6596 254.091 84.4231 256.541 85.1764 259.365C85.9296 262.189 85.6203 265.192 84.3069 267.803L84.3069 267.803Z" fill="#FFB6B6"/>
<path d="M67.7618 205.763L37.5486 267.473L50.3171 261.689L59.2037 257.659L63.6589 274.578C63.6589 274.578 60.7086 277.443 56.0563 281.21C49.3854 286.619 39.2268 293.896 29.2771 297.263C21.4894 299.902 13.8391 300.147 8.09387 295.227C-2.81131 285.891 7.84902 248.812 18.151 220.58C25.0488 201.673 31.7795 186.743 31.7795 186.743C31.7795 166.803 70.4902 138.132 77.6747 134.21C81.7776 131.977 82.9121 135.229 82.9121 135.229L60.3981 168.176L67.1287 195.459L69.0338 203.166L67.7618 205.763Z" fill="#FFBD3D"/>
</g>
<defs>
<clipPath id="clip0_155_249">
<rect width="556" height="476" fill="white"/>
</clipPath>
</defs>
</svg>
